{"title":"Under The Sea 3D 2009 BDRip.x264.AC3","uid":8186760,"size":2350829520,"categoryP":"video","categoryS":"3d","magnet":"?xt=urn:btih:159c3a8d9c51becf6b3d82f6db75cb688914e69e&amp;dn=Under+The+Sea+3D+2009+BDRip.x264.AC3&amp;tr=udp%3A%2F%2Ftracker.openbittorrent.com%3A80&amp;tr=udp%3A%2F%2Fopen.demonii.com%3A1337&amp;tr=udp%3A%2F%2Ftracker.coppersurfer.tk%3A6969&amp;tr=udp%3A%2F%2Fexodus.desync.com%3A6969","seeders":5,"leechers":1,"uploader":"krzysiekvip2","files":13,"time":1361740640,"description":"Under The Sea-alE13Under The Sea (2009) - alE13.mkv\nFormat : Matroska\nFormat version : Version 2\nFile size : 2.15 GiB\nDuration : 40mn 54s\nOverall bit rate : 7 537 Kbps\nMovie name : Under the Sea 3D (2009)-alE13\nEncoded date : UTC 2013-02-07 07:48:41\nWriting application : mkvmerge v5.8.0\nWriting library : libebml v1.2.3 + libmatroska v1.3.0\n\nVideo\nID : 1\nFormat : AVC\nFormat/Info : Advanced Video Codec\nFormat profile : &lt;a class=&quot;__cf_email__&quot; href=&quot;/cdn-cgi/l/email-protection&quot; data-cfemail=&quot;99d4f8f0f7d9d5adb7a9&quot;&gt;[email&amp;#160;protected]&lt;/a&gt;&lt;script cf-hash='f9e31' type=&quot;text/javascript&quot;&gt;\n/* &lt;![CDATA[ */!function(){try{var t=&quot;currentScript&quot;in document?document.currentScript:function(){for(var t=document.getElementsByTagName(&quot;script&quot;),e=t.length;e--;)if(t[e].getAttribute(&quot;cf-hash&quot;))return t[e]}();if(t&amp;&amp;t.previousSibling){var e,r,n,i,c=t.previousSibling,a=c.getAttribute(&quot;data-cfemail&quot;);if(a){for(e=&quot;&quot;,r=parseInt(a.substr(0,2),16),n=2;a.length-n;n+=2)i=parseInt(a.substr(n,2),16)^r,e+=String.fromCharCode(i);e=document.createTextNode(e),c.parentNode.replaceChild(e,c)}}}catch(u){}}();/* ]]&gt; */&lt;/script&gt;\nFormat settings, CABAC : Yes\nFormat settings, ReFrames : 2 frames\nMuxing mode : Header stripping\nCodec ID : V_MPEG4/ISO/AVC\nDuration : 40mn 54s\nBit rate : 7 000 Kbps\nWidth : 1 920 pixels\nHeight : 1 080 pixels\nDisplay aspect ratio : 16:9\nFrame rate mode : Constant\nFrame rate : 24.000 fps\nColor space : YUV\nChroma subsampling : 4:2:0\nBit depth : 8 bits\nScan type : Progressive\nBits/(Pixel*Frame) : 0.141\nStream size : 1.93 GiB (90%)\nWriting library : x264 core 112 r1834 a51816a\n\nAudio\nID : 3\nFormat : AC-3\nFormat/Info : Audio Coding 3\nMode extension : CM (complete main)\nFormat settings, Endianness : Big\nMuxing mode : Header stripping\nCodec ID : A_AC3\nDuration : 40mn 54s\nBit rate mode : Constant\nBit rate : 640 Kbps\nChannel(s) : 6 channels\nChannel positions : Front: L C R, Side: L R, LFE\nSampling rate : 48.0 KHz\nBit depth : 16 bits\nCompression mode : Lossy\nStream size : 187 MiB (8%)\nLanguage : English\nDefault : No\nForced : No\n\nText\nID : 2\nFormat : VobSub\nMuxing mode : zlib\nCodec ID : S_VOBSUB\nCodec ID/Info : The same subtitle format used on DVDs\nLanguage : Polish\nDefault : Yes\nForced : No\n\nMenu\n00:00:00.000 : :1\n00:09:11.509 : :2\n00:19:25.748 : :3\n00:29:32.604 : :4\n00:39:36.291 : :5\n\n\nScreens:\n\n","torrent":{"xt":"urn:btih:159c3a8d9c51becf6b3d82f6db75cb688914e69e","amp;dn":"Under+The+Sea+3D+2009+BDRip.x264.AC3","amp;tr":["udp%3A%2F%2Ftracker.openbittorrent.com%3A80","udp%3A%2F%2Fopen.demonii.com%3A1337","udp%3A%2F%2Ftracker.coppersurfer.tk%3A6969","udp%3A%2F%2Fexodus.desync.com%3A6969"],"infoHash":"159c3a8d9c51becf6b3d82f6db75cb688914e69e","infoHashBuffer":{"type":"Buffer","data":[21,156,58,141,156,81,190,207,107,61,130,246,219,117,203,104,137,20,230,158]},"announce":[],"urlList":[]}}